<svg width="80" height="80" viewBox="0 0 80 80" fill="none" xmlns="http://www.w3.org/2000/svg">
<rect width="80" height="80" rx="20" fill="#FF8E3C" fill-opacity="0.41"/>
<path fill-rule="evenodd" clip-rule="evenodd" d="M21.5787 17.5C21.1062 17.5 20.685 17.8275 20.5225 18.32L17.6375 27.0837C17.5464 27.3609 17.5 27.6508 17.5 27.9425V31.4287C17.5 33.4 18.9388 35 20.7138 35C22.4888 35 23.9287 33.4 23.9287 31.4287C23.9287 33.4012 25.3675 35 27.1425 35C28.9175 35 30.3575 33.4 30.3575 31.4287C30.3575 33.4012 31.7963 35 33.5713 35C35.3463 35 36.7838 33.4025 36.7863 31.4313C36.7863 33.4025 38.225 35 40 35C41.775 35 43.2137 33.4 43.2137 31.4287C43.2137 33.4012 44.6537 35 46.4287 35C48.2037 35 49.6413 33.4025 49.6425 31.4313C49.6438 33.4025 51.0825 35 52.8575 35C54.6325 35 56.0712 33.4 56.0712 31.4287C56.0712 33.4012 57.51 35 59.2863 35C61.0613 35 62.5 33.4 62.5 31.4287V27.9425C62.5 27.6508 62.4536 27.3609 62.3625 27.0837L59.4775 18.3213C59.315 17.8275 58.8937 17.5 58.4212 17.5H21.5787V17.5Z" fill="url(#paint0_linear_1210_101)"/>
<path fill-rule="evenodd" clip-rule="evenodd" d="M22.5 36.5375V46.25H19.375C19.2092 46.25 19.0503 46.3158 18.9331 46.4331C18.8158 46.5503 18.75 46.7092 18.75 46.875V48.125C18.75 48.2908 18.8158 48.4497 18.9331 48.5669C19.0503 48.6842 19.2092 48.75 19.375 48.75H60.625C60.7908 48.75 60.9497 48.6842 61.0669 48.5669C61.1842 48.4497 61.25 48.2908 61.25 48.125V46.875C61.25 46.7092 61.1842 46.5503 61.0669 46.4331C60.9497 46.3158 60.7908 46.25 60.625 46.25H57.5V36.5375C56.9767 36.329 56.4934 36.0317 56.0713 35.6588C55.7472 35.9446 55.387 36.1866 55 36.3788V46.25H25V36.3788C24.613 36.1866 24.2528 35.9446 23.9288 35.6588C23.5088 36.0275 23.0288 36.3275 22.5 36.5375ZM55 34.0913C55.1063 33.985 55.2063 33.8713 55.3 33.75H55V34.0913ZM56.8425 33.75C57.0315 33.9948 57.2526 34.2131 57.5 34.3987V33.75H56.8425ZM22.5 34.3987C22.7486 34.2145 22.97 33.9961 23.1575 33.75H22.5V34.3987ZM24.7 33.75H25V34.0913C24.8926 33.9842 24.7924 33.8702 24.7 33.75V33.75ZM20.625 51.25C20.4592 51.25 20.3003 51.3158 20.1831 51.4331C20.0658 51.5503 20 51.7092 20 51.875V61.25C20 61.5815 20.1317 61.8995 20.3661 62.1339C20.6005 62.3683 20.9185 62.5 21.25 62.5H58.75C59.0815 62.5 59.3995 62.3683 59.6339 62.1339C59.8683 61.8995 60 61.5815 60 61.25V51.875C60 51.7092 59.9342 51.5503 59.8169 51.4331C59.6997 51.3158 59.5408 51.25 59.375 51.25H20.625Z" fill="url(#paint1_linear_1210_101)"/>
<path d="M31.875 42.5H28.125C27.7798 42.5 27.5 42.7798 27.5 43.125V45.625C27.5 45.9702 27.7798 46.25 28.125 46.25H31.875C32.2202 46.25 32.5 45.9702 32.5 45.625V43.125C32.5 42.7798 32.2202 42.5 31.875 42.5Z" fill="url(#paint2_linear_1210_101)"/>
<path d="M34.375 43.75H30.625C30.2798 43.75 30 44.0298 30 44.375V45.625C30 45.9702 30.2798 46.25 30.625 46.25H34.375C34.7202 46.25 35 45.9702 35 45.625V44.375C35 44.0298 34.7202 43.75 34.375 43.75Z" fill="url(#paint3_linear_1210_101)"/>
<path d="M38.125 46.25C39.1605 46.25 40 45.4105 40 44.375C40 43.3395 39.1605 42.5 38.125 42.5C37.0895 42.5 36.25 43.3395 36.25 44.375C36.25 45.4105 37.0895 46.25 38.125 46.25Z" fill="url(#paint4_linear_1210_101)"/>
<defs>
<linearGradient id="paint0_linear_1210_101" x1="40" y1="17.5" x2="40" y2="35" gradientUnits="userSpaceOnUse">
<stop offset="0.578125" stop-color="#FA8571"/>
<stop offset="1" stop-color="#EA5D5C"/>
</linearGradient>
<linearGradient id="paint1_linear_1210_101" x1="40" y1="33.75" x2="40" y2="62.5" gradientUnits="userSpaceOnUse">
<stop offset="0.578125" stop-color="#FA8571"/>
<stop offset="1" stop-color="#EA5D5C"/>
</linearGradient>
<linearGradient id="paint2_linear_1210_101" x1="30" y1="42.5" x2="30" y2="46.25" gradientUnits="userSpaceOnUse">
<stop offset="0.578125" stop-color="#FA8571"/>
<stop offset="1" stop-color="#EA5D5C"/>
</linearGradient>
<linearGradient id="paint3_linear_1210_101" x1="32.5" y1="43.75" x2="32.5" y2="46.25" gradientUnits="userSpaceOnUse">
<stop offset="0.578125" stop-color="#FA8571"/>
<stop offset="1" stop-color="#EA5D5C"/>
</linearGradient>
<linearGradient id="paint4_linear_1210_101" x1="38.125" y1="42.5" x2="38.125" y2="46.25" gradientUnits="userSpaceOnUse">
<stop offset="0.578125" stop-color="#FA8571"/>
<stop offset="1" stop-color="#EA5D5C"/>
</linearGradient>
</defs>
</svg>
